SplineFontDB: 3.2
FontName: NewEng_Rune_Style
FullName: NewEng Rune Style Regular
FamilyName: NewEng Rune
Weight: Regular
Copyright: Copyright (c) 2024, Phlowyd (Farran Lee De Tao)
UComments: "2024-5-8: Created with FontForge (http://fontforge.org)"
FontLog: "v001.003 - 05/10/2024+AAoA-Version numbers got mixed up so bumping the version simply to avoid any confusion.+AAoACgAA-v001.002 - 02/10/2024+AAoA-Set up some kern-by-class tables.+AAoA-Set an auto-italic angle of 5deg.+AAoACgAA-v001.001 - 02/10/2024+AAoA-Updated uncertain glyphs, including y, z, eng and esh.+AAoA-Set all anchor points for the macron diacritic. No other diacritics are yet included. AEIOUWY vowels have composite macron glyphs.+AAoA-No numbers are included.+AAoACgAA"
Version: 001.003
ItalicAngle: 5
UnderlinePosition: -124
UnderlineWidth: 50
Ascent: 800
Descent: 200
InvalidEm: 0
LayerCount: 2
Layer: 0 0 "Back" 1
Layer: 1 0 "Fore" 0
XUID: [1021 59 1062431447 27790]
UseXUID: 1
StyleMap: 0x0000
FSType: 0
OS2Version: 0
OS2_WeightWidthSlopeOnly: 0
OS2_UseTypoMetrics: 1
CreationTime: 1715150662
ModificationTime: 1728120385
PfmFamily: 81
TTFWeight: 400
TTFWidth: 5
LineGap: 72
VLineGap: 0
OS2TypoAscent: 0
OS2TypoAOffset: 1
OS2TypoDescent: 0
OS2TypoDOffset: 1
OS2TypoLinegap: 90
OS2WinAscent: 0
OS2WinAOffset: 1
OS2WinDescent: 0
OS2WinDOffset: 1
HheadAscent: 0
HheadAOffset: 1
HheadDescent: 0
HheadDOffset: 1
OS2Vendor: 'PfEd'
Lookup: 4 0 1 "'liga' Standard Ligatures lookup 0" { "'liga' Standard Ligatures lookup 0-1"  } ['liga' ('DFLT' <'dflt' > 'armn' <'dflt' > 'cyrl' <'dflt' > 'grek' <'dflt' > 'latn' <'dflt' > ) ]
Lookup: 258 0 0 "'kern' Horizontal Kerning lookup 0" { "'kern' Horizontal Kerning lookup 0-1" [135,13,0] } ['kern' ('DFLT' <'dflt' > 'armn' <'dflt' > 'cyrl' <'dflt' > 'grek' <'dflt' > 'latn' <'dflt' > ) ]
Lookup: 260 0 0 "'abvm' Above Base Mark lookup 1" { "'abvm' Above Base Mark lookup 1-1"  } ['abvm' ('DFLT' <'dflt' > 'armn' <'dflt' > 'cyrl' <'dflt' > 'grek' <'dflt' > 'latn' <'dflt' > ) ]

StartChar: A
Encoding: 65 65 0
Width: 653
Flags: W
HStem: 723 20G<298.739 398>
AnchorPoint: "Anchora 1" 337 918 basechar 0
LayerCount: 2
Back
SplineSet
81.95703125 80.037109375 m 5
 322.073242188 720.353515625 l 5
 562.197265625 80.037109375 l 1029
EndSplineSet
Fore
SplineSet
328 621 m 1
 123 80 l 1
 59 57 l 1
 50 80 l 1
 290 720 l 1
 357 743 l 1
 439 522 522 301 604 80 c 1
 539 57 l 1
 328 621 l 1
EndSplineSet
Validated: 1
EndChar

StartChar: Amacron
Encoding: 256 256 2
Width: 654
Flags: W
HStem: 697 46<197 459>
AnchorPoint: "Anchora 1" 328 918 basechar 0
LayerCount: 2
Back
SplineSet
220.989257812 278.302734375 m 5
 775.739257812 278.302734375 l 1029
220.989257812 649.3828125 m 5
 870.374023438 649.3828125 l 5
 870.374023438 0 l 1029
128.225585938 649.3828125 m 5
 128.225585938 0 l 1029
220.989257812 834.918945312 m 5
 777.60546875 834.918945312 l 1029
EndSplineSet
Fore
SplineSet
324 482 m 1
 123 80 l 1
 59 57 l 1
 50 80 l 1
 290 560 l 1
 357 583 l 1
 597 103 l 1
 604 80 l 1
 539 57 l 1
 324 482 l 1
517 743 m 1
 524 720 l 1
 459 697 l 1
 139 697 l 1
 130 720 l 1
 197 743 l 1
 517 743 l 1
EndSplineSet
Validated: 1
EndChar

StartChar: B
Encoding: 66 66 3
Width: 413
Flags: W
HStem: -23 21G<51.1739 114.652> -23 21G<51.1739 114.652> 803 20G<58.7391 137> 803 20G<58.7391 137>
VStem: 50 73<73 391 496 711>
AnchorPoint: "Anchora 1" 199 918 basechar 0
LayerCount: 2
Back
SplineSet
89.9814453125 480.233398438 m 5
 330.09765625 240.1171875 l 5
 89.9814453125 0 l 5
 89.9814453125 800.391601562 l 5
 330.09765625 560.275390625 l 5
 250.056640625 480.233398438 l 1029
EndSplineSet
Fore
SplineSet
50 800 m 1xa8
 117 823 l 1
 357 583 l 1
 364 560 l 1
 284 480 l 1
 219 457 l 1
 210 480 l 1
 282 552 l 1
 123 711 l 1
 123 496 l 1
 357 263 l 1
 364 240 l 1
 123 0 l 1
 59 -23 l 1
 50 0 l 1
 50 800 l 1xa8
123 73 m 1
 282 232 l 1
 123 391 l 1
 123 73 l 1
EndSplineSet
Validated: 1
EndChar

StartChar: C
Encoding: 67 67 4
Width: 413
Flags: W
HStem: -23 21G<287 355.522> -23 21G<287 355.522> 803 20G<298.739 363.087> 803 20G<298.739 363.087>
VStem: 50 314
AnchorPoint: "Anchora 1" 199 918 basechar 0
LayerCount: 2
Back
SplineSet
366.52734375 800.391601562 m 1
 126.413085938 400.196289062 l 1
 366.52734375 0 l 1025
EndSplineSet
Fore
SplineSet
290 800 m 1xa8
 357 823 l 1
 364 800 l 1
 128 404 l 1
 357 23 l 1
 364 0 l 1
 299 -23 l 1
 59 377 l 1
 50 400 l 1
 290 800 l 1xa8
EndSplineSet
Validated: 1
EndChar

StartChar: D
Encoding: 68 68 5
Width: 413
Flags: W
HStem: -23 21G<51.1739 114.652> -23 21G<51.1739 114.652> 803 20G<58.7391 129> 803 20G<58.7391 129>
VStem: 50 73<123 400>
AnchorPoint: "Anchora 1" 199 918 basechar 0
LayerCount: 2
Back
SplineSet
88.302734375 800.391601562 m 5
 328.419921875 400.196289062 l 5
 88.302734375 0 l 5
 88.302734375 400.196289062 l 1029
EndSplineSet
Fore
SplineSet
123 0 m 1xa8
 59 -23 l 1
 50 0 l 1
 50 400 l 1
 117 423 l 1
 123 400 l 1
 123 123 l 1
 288 396 l 1
 59 777 l 1
 50 800 l 1
 117 823 l 1
 357 423 l 1
 364 400 l 1
 123 0 l 1xa8
EndSplineSet
Validated: 1
EndChar

StartChar: Ccedilla
Encoding: 199 199 6
Width: 414
Flags: W
HStem: -23 21G<286.803 355.522> -23 21G<286.803 355.522> 803 20G<298.739 363.087> 803 20G<298.739 363.087>
VStem: 50 314
AnchorPoint: "Anchora 1" 199 918 basechar 0
LayerCount: 2
Back
SplineSet
170.919921875 266.799804688 m 1
 90.8818359375 133.396484375 l 1
 151.708984375 32.01953125 l 1025
330.999023438 800.391601562 m 1
 90.8818359375 400.196289062 l 1
 330.999023438 0 l 1025
EndSplineSet
Fore
SplineSet
290 800 m 1xa8
 357 823 l 1
 364 800 l 1
 128 404 l 1
 197 290 l 1
 357 23 l 1
 364 0 l 1
 299 -23 l 1
 163 200 l 1
 128 139 l 1
 177 57 l 1
 184 32 l 1
 120 9 l 1
 59 110 l 1
 50 133 l 1
 128 262 l 1
 59 377 l 1
 50 400 l 1
 290 800 l 1xa8
EndSplineSet
Validated: 1
EndChar

StartChar: E
Encoding: 69 69 7
Width: 413
Flags: W
HStem: -23 21G<287 355.522> -23 21G<287 355.522> 377 46<143 299> 803 20G<298.739 363.087> 803 20G<298.739 363.087>
VStem: 50 314
AnchorPoint: "Anchora 1" 199 918 basechar 0
LayerCount: 2
Back
SplineSet
265.340820312 800.391601562 m 5
 25.2236328125 400.196289062 l 5
 265.340820312 400.196289062 l 5
 25.2236328125 400.196289062 l 5
 265.340820312 0 l 1029
EndSplineSet
Fore
SplineSet
139 423 m 1xb4
 357 423 l 1
 364 400 l 1
 299 377 l 1
 143 377 l 1
 357 23 l 1
 364 0 l 1
 299 -23 l 1
 59 377 l 1
 50 400 l 1
 290 800 l 1
 357 823 l 1
 364 800 l 1
 139 423 l 1xb4
EndSplineSet
Validated: 1
EndChar

StartChar: Dcroat
Encoding: 257 272 8
Width: 494
Flags: W
HStem: -23 21G<131.174 194.652> -23 21G<131.174 194.652> 377 46<117 130 203 219> 803 20G<138.739 209> 803 20G<138.739 209>
VStem: 130 73<123 377>
AnchorPoint: "Anchora 1" 257 891 basechar 0
LayerCount: 2
Back
SplineSet
233.903320312 400.196289062 m 5
 73.82421875 400.196289062 l 1029
153.865234375 800.391601562 m 5
 393.982421875 400.196289062 l 5
 153.865234375 0 l 5
 153.865234375 400.196289062 l 1029
EndSplineSet
Fore
SplineSet
203 0 m 1xb4
 139 -23 l 1
 130 0 l 1
 130 377 l 1
 59 377 l 1
 50 400 l 1
 117 423 l 1
 197 423 l 1
 277 423 l 1
 284 400 l 1
 219 377 l 1
 203 377 l 1
 203 123 l 1
 368 396 l 1
 139 777 l 1
 130 800 l 1
 197 823 l 1
 437 423 l 1
 444 400 l 1
 203 0 l 1xb4
EndSplineSet
Validated: 1
EndChar

StartChar: Emacron
Encoding: 260 274 11
Width: 494
Flags: W
HStem: -23 21G<284 355.522> -23 21G<284 355.522> 297 46<151 299> 643 20G<298.739 363.087> 744 48<117 379>
AnchorPoint: "Anchora 1" 240 889 basechar 0
LayerCount: 2
Back
SplineSet
72.765625 768.375976562 m 1
 392.926757812 768.375976562 l 1025
312.881835938 640.3125 m 1
 72.765625 320.158203125 l 1
 312.881835938 320.158203125 l 1
 72.765625 320.158203125 l 1
 312.881835938 0 l 1025
EndSplineSet
Fore
SplineSet
142 343 m 1xb8
 357 343 l 1
 364 320 l 1
 299 297 l 1
 151 297 l 1
 357 23 l 1
 364 0 l 1
 299 -23 l 1
 59 297 l 1
 50 320 l 1
 290 640 l 1
 357 663 l 1
 364 640 l 1
 142 343 l 1xb8
59 744 m 1
 50 769 l 1
 117 792 l 1
 437 792 l 1
 444 769 l 1
 379 744 l 1
 59 744 l 1
EndSplineSet
Validated: 1
EndChar

StartChar: Imacron
Encoding: 262 298 13
Width: 494
Flags: W
HStem: -23 21G<211.174 275.522> -23 21G<211.174 275.522> 643 20G<218.739 283.087> 777 46<117 379>
VStem: 210 74<0 640>
AnchorPoint: "Anchora 1" 251 909 basechar 0
LayerCount: 2
Back
SplineSet
139.611328125 640.3125 m 5
 139.611328125 0 l 1029
-20.46875 800.391601562 m 5
 299.690429688 800.391601562 l 1029
EndSplineSet
Fore
SplineSet
59 777 m 1x38
 50 800 l 1
 117 823 l 1
 437 823 l 1
 444 800 l 1
 379 777 l 1
 59 777 l 1x38
210 640 m 1
 277 663 l 1
 284 640 l 1
 284 0 l 1
 219 -23 l 1xb8
 210 0 l 1
 210 640 l 1
EndSplineSet
Validated: 1
EndChar

StartChar: Omacron
Encoding: 264 332 15
Width: 494
Flags: W
HStem: 697 46<197 299>
AnchorPoint: "Anchora 1" 249 918 basechar 0
LayerCount: 2
Back
SplineSet
114.696289062 391.697265625 m 2
 114.696289062 670 114.696289062 670 393 670 c 2
 578.5390625 670 l 2
 856.84375 670 856.84375 670 856.84375 391.697265625 c 2
 856.84375 305 l 1
 856.84375 278.302734375 l 2
 856.84375 0 856.84375 0 578.5390625 0 c 2
 393 0 l 2
 114.696289062 0 114.696289062 0 114.696289062 278.302734375 c 2
 114.696289062 310.999023438 l 1
 114.696289062 391.697265625 l 2
207.23828125 834.918945312 m 1
 763.854492188 834.918945312 l 1025
EndSplineSet
Fore
SplineSet
-911 1109 m 1050
243 499 m 1
 128 327 l 1
 251 141 l 1
 367 316 l 1
 243 499 l 1
50 320 m 1
 210 560 l 1
 277 583 l 1
 437 343 l 1
 444 320 l 1
 284 80 l 1
 219 57 l 1
 59 297 l 1
 50 320 l 1
139 697 m 1
 130 720 l 1
 197 743 l 1
 357 743 l 1
 364 720 l 1
 299 697 l 1
 139 697 l 1
EndSplineSet
Validated: 1
EndChar

StartChar: Umacron
Encoding: 266 362 17
Width: 414
Flags: W
HStem: -23 21G<51.1739 114.652 291.174 355.522> -23 21G<51.1739 114.652 291.174 355.522> 643 20G<58.7391 122.217 298.739 363.087> 777 46<117 299>
VStem: 50 73<49 640> 290 74<0 111 160 640>
AnchorPoint: "Anchora 1" 199 918 basechar 0
LayerCount: 2
Back
SplineSet
869.270507812 649.377929688 m 5
 869.270507812 -2.1376953125 l 1029
127.125976562 649.377929688 m 5
 127.125976562 0 l 5
 776.506835938 0 l 1029
219.89453125 834.918945312 m 5
 776.506835938 834.918945312 l 1029
EndSplineSet
Fore
SplineSet
364 0 m 1xbc
 299 -23 l 1
 290 0 l 1
 290 111 l 1
 123 0 l 1
 59 -23 l 1
 50 0 l 1
 50 640 l 1
 117 663 l 1
 123 640 l 1
 123 49 l 1
 290 160 l 1
 290 640 l 1
 357 663 l 1
 364 640 l 1
 364 0 l 1xbc
59 777 m 1
 50 800 l 1
 117 823 l 1
 357 823 l 1
 364 800 l 1
 299 777 l 1
 59 777 l 1
EndSplineSet
Validated: 1
EndChar

StartChar: Phi
Encoding: 268 934 19
Width: 654
Flags: W
HStem: -23 21G<291.174 355.522> -23 21G<291.174 355.522> 803 20G<298.739 363.087> 803 20G<298.739 363.087>
VStem: 290 74<0 144 250 551 656 800>
AnchorPoint: "Anchora 1" 331 918 basechar 0
LayerCount: 2
Back
SplineSet
311.78515625 640.3125 m 1
 551.905273438 400.196289062 l 1
 311.78515625 160.079101562 l 1
 71.66796875 400.196289062 l 1
 311.78515625 640.3125 l 1
311.78515625 800.391601562 m 1
 311.78515625 0 l 1025
EndSplineSet
Fore
SplineSet
290 800 m 1xa8
 357 823 l 1
 364 800 l 1
 364 656 l 1
 597 423 l 1
 604 400 l 1
 364 160 l 2
 364 0 l 1
 299 -23 l 1
 290 0 l 1
 290 144 l 1
 59 377 l 1
 50 400 l 1
 290 640 l 1
 290 800 l 1xa8
364 233 m 1
 522 392 l 1
 364 551 l 1
 364 233 l 1
290 250 m 1
 290 567 l 1
 131 408 l 1
 290 250 l 1
EndSplineSet
Validated: 1
EndChar

StartChar: F
Encoding: 70 70 20
Width: 413
Flags: W
HStem: -23 21G<51.1739 114.652> -23 21G<51.1739 114.652> 803 20G<58.7391 122.217 298.739 363.087> 803 20G<58.7391 122.217 298.739 363.087>
VStem: 50 73<0 320 393 560 636 800>
AnchorPoint: "Anchora 1" 199 918 basechar 0
LayerCount: 2
Back
SplineSet
110.237304688 560.275390625 m 5
 350.354492188 800.391601562 l 1029
110.237304688 320.158203125 m 5
 350.354492188 560.275390625 l 1029
110.237304688 800.391601562 m 5
 110.237304688 0 l 1029
EndSplineSet
Fore
SplineSet
50 800 m 1xa8
 117 823 l 1
 123 800 l 1
 123 636 l 1
 290 800 l 1
 357 823 l 1
 364 800 l 1
 123 560 l 1
 123 393 l 1
 290 560 l 1
 357 583 l 1
 364 560 l 1
 123 320 l 1
 123 0 l 1
 59 -23 l 1
 50 0 l 1
 50 320 l 1
 50 560 l 1
 50 800 l 1xa8
EndSplineSet
Validated: 1
EndChar

StartChar: G
Encoding: 71 71 21
Width: 653
Flags: W
HStem: -23 21G<287 355.522> -23 21G<287 355.522> 377 46<357 517> 803 20G<298.739 363.087> 803 20G<298.739 363.087>
AnchorPoint: "Anchora 1" 323 918 basechar 0
LayerCount: 2
Back
SplineSet
344.728515625 800.391601562 m 1
 104.611328125 400.196289062 l 1
 344.728515625 0 l 1
 584.845703125 400.196289062 l 1
 344.728515625 400.196289062 l 1025
EndSplineSet
Fore
SplineSet
290 800 m 1xb0
 357 823 l 1
 364 800 l 1
 128 404 l 1
 330 67 l 1
 517 377 l 1
 299 377 l 1
 290 400 l 1
 357 423 l 1
 597 423 l 1
 604 400 l 1
 364 0 l 1
 299 -23 l 1
 59 377 l 1
 50 400 l 1
 290 800 l 1xb0
EndSplineSet
Validated: 1
EndChar

StartChar: uni021C
Encoding: 270 540 23
Width: 414
Flags: W
HStem: -23 21G<51.1739 114.652> -23 21G<51.1739 114.652> 777 46<117 272>
VStem: 50 314
AnchorPoint: "Anchora 1" 199 918 basechar 0
LayerCount: 2
Back
SplineSet
78.318359375 800.391601562 m 1
 318.435546875 800.391601562 l 1
 78.318359375 480.233398438 l 1
 318.435546875 240.1171875 l 1
 78.318359375 0 l 1025
EndSplineSet
Fore
SplineSet
131 489 m 1xb0
 357 263 l 1
 364 240 l 1
 123 0 l 1
 59 -23 l 1
 50 0 l 1
 282 232 l 1
 59 457 l 1
 50 480 l 1
 272 777 l 1
 59 777 l 1
 50 800 l 1
 117 823 l 1
 357 823 l 1
 364 800 l 1
 131 489 l 1xb0
EndSplineSet
Validated: 1
EndChar

StartChar: uniA7B0
Encoding: 272 42928 25
Width: 414
Flags: W
HStem: -23 21G<291.174 355.522> -23 21G<291.174 355.522> 663 140G<58.7391 137 298.739 363.087> 803 20G<298.739 363.087>
VStem: 290 74<0 327 490 800>
AnchorPoint: "Anchora 1" 199 918 basechar 0
LayerCount: 2
Back
SplineSet
76.94921875 640.3125 m 1
 317.06640625 400.196289062 l 1
 76.94921875 160.079101562 l 1025
317.06640625 800.391601562 m 1
 317.06640625 0 l 1025
EndSplineSet
Fore
SplineSet
290 800 m 1xa8
 357 823 l 1x18
 364 800 l 1
 364 400 l 1
 364 0 l 1
 299 -23 l 1
 290 0 l 1
 290 327 l 1
 123 160 l 1
 59 137 l 1
 50 160 l 1
 282 392 l 1
 59 617 l 1
 50 640 l 1
 117 663 l 1
 290 490 l 1
 290 800 l 1xa8
EndSplineSet
Validated: 1
EndChar

StartChar: uni0539
Encoding: 274 1337 27
Width: 494
Flags: W
HStem: -23 21G<51.1739 114.652 359 435.522> -23 21G<51.1739 114.652 359 435.522> 803 20G<58.7391 122.217 378.739 443.087> 803 20G<58.7391 122.217 378.739 443.087>
VStem: 50 73<0 480 553 800> 370 74<90 407 480 727>
AnchorPoint: "Anchora 1" 249 918 basechar 0
LayerCount: 2
Back
SplineSet
99.83203125 800.391601562 m 1
 99.83203125 0 l 1025
99.83203125 480.233398438 m 1
 419.989257812 800.391601562 l 1
 419.989257812 0 l 1
 179.8671875 240.1171875 l 1
 419.989257812 480.233398438 l 1025
EndSplineSet
Fore
SplineSet
444 800 m 1xac
 444 0 l 1
 379 -23 l 1
 139 217 l 1
 130 240 l 1
 370 480 l 1
 370 727 l 1
 123 480 l 1
 123 0 l 1
 59 -23 l 1
 50 0 l 1
 50 480 l 1
 50 800 l 1
 117 823 l 1
 123 800 l 1
 123 553 l 1
 370 800 l 1
 437 823 l 1
 444 800 l 1xac
211 248 m 1
 370 90 l 1
 370 407 l 1
 211 248 l 1
EndSplineSet
Validated: 1
EndChar

StartChar: Eng
Encoding: 276 330 29
Width: 494
Flags: WO
HStem: -23 21G<51.1739 114.652 358.843 435.522> -23 21G<51.1739 114.652 358.843 435.522> 803 20G<58.7391 137 378.739 443.087> 803 20G<58.7391 137 378.739 443.087>
VStem: 50 73<0 231 336 711> 370 74<90 464 570 800>
AnchorPoint: "Anchora 1" 249 918 basechar 0
LayerCount: 2
Back
SplineSet
99.1875 0 m 1
 99.1875 800.391601562 l 1
 419.33984375 480.233398438 l 1025
419.33984375 800.391601562 m 1
 419.33984375 0 l 1
 99.1875 320.158203125 l 1025
899.579101562 800.391601562 m 1
 579.420898438 400.196289062 l 1
 899.579101562 0 l 1025
579.420898438 800.391601562 m 1
 899.579101562 400.196289062 l 1
 579.420898438 0 l 1025
EndSplineSet
Fore
SplineSet
370 464 m 1x0c
 123 711 l 1
 123 336 l 1
 370 90 l 1
 370 464 l 1x0c
444 480 m 1
 444 0 l 1
 379 -23 l 1
 123 231 l 1
 123 0 l 1
 59 -23 l 1
 50 0 l 1
 50 320 l 1
 50 800 l 1
 117 823 l 1
 370 570 l 1
 370 800 l 1
 437 823 l 1xac
 444 800 l 1
 444 480 l 1
EndSplineSet
Validated: 1
EndChar

StartChar: uni0222
Encoding: 278 546 31
Width: 494
Flags: W
HStem: -23 21G<205.667 275.522> -23 21G<205.667 275.522> 803 20G<58.7391 128.368 378.739 443.087> 803 20G<58.7391 128.368 378.739 443.087>
AnchorPoint: "Anchora 1" 249 918 basechar 0
LayerCount: 2
Back
SplineSet
414.080078125 800.392578125 m 5
 93.921875 240.1171875 l 5
 254.000976562 0 l 5
 414.080078125 240.1171875 l 5
 93.921875 800.392578125 l 1029
EndSplineSet
Fore
SplineSet
128 247 m 1x00
 251 61 l 1
 368 237 l 1
 244 451 l 1
 128 247 l 1x00
287 524 m 1
 437 263 l 1
 444 240 l 1
 284 0 l 1
 219 -23 l 1
 59 217 l 1
 50 240 l 1
 208 516 l 1
 59 777 l 1
 50 800 l 1
 117 823 l 1
 250 589 l 1
 370 800 l 1
 437 823 l 1xa0
 444 800 l 1
 287 524 l 1
EndSplineSet
Validated: 1
LCarets2: 1 248
Ligature2: "'liga' Standard Ligatures lookup 0-1" O U
Ligature2: "'liga' Standard Ligatures lookup 0-1" O u
EndChar

StartChar: Thorn
Encoding: 222 222 32
Width: 414
Flags: W
HStem: -23 21G<51.1739 114.652> -23 21G<51.1739 114.652> 803 20G<58.7391 122.217> 803 20G<58.7391 122.217>
VStem: 50 73<0 160 233 551 656 800>
AnchorPoint: "Anchora 1" 199 918 basechar 0
LayerCount: 2
Back
SplineSet
103.220703125 640.3125 m 1
 343.337890625 400.196289062 l 1
 103.220703125 160.079101562 l 1
 103.220703125 640.3125 l 1
103.220703125 800.391601562 m 1
 103.220703125 0 l 1025
EndSplineSet
Fore
SplineSet
50 800 m 1xa8
 117 823 l 1
 123 800 l 1
 123 656 l 1
 357 423 l 1
 364 400 l 1
 123 160 l 2
 123 0 l 1
 59 -23 l 1
 50 0 l 1
 50 160 l 1
 50 640 l 1
 50 800 l 1xa8
123 233 m 1
 282 392 l 1
 123 551 l 1
 123 233 l 1
EndSplineSet
Validated: 1
EndChar

StartChar: H
Encoding: 72 72 33
Width: 493
Flags: W
HStem: -23 21G<51.1739 114.652 371.174 435.522> -23 21G<51.1739 114.652 371.174 435.522> 803 20G<58.7391 122.217 378.739 443.087> 803 20G<58.7391 122.217 378.739 443.087>
VStem: 50 73<0 408 498 568 658 800> 370 74<0 222 313 382 473 800>
AnchorPoint: "Anchora 1" 249 918 basechar 0
LayerCount: 2
Back
SplineSet
432.747070312 800.391601562 m 5
 432.747070312 0 l 1029
112.594726562 480.233398438 m 5
 432.747070312 240.1171875 l 1029
112.594726562 640.3125 m 5
 432.747070312 400.196289062 l 1029
112.594726562 800.391601562 m 5
 112.594726562 0 l 1029
EndSplineSet
Fore
SplineSet
50 800 m 1xac
 117 823 l 1
 123 800 l 1
 123 658 l 1
 370 473 l 1
 370 800 l 1
 437 823 l 1
 444 800 l 1
 444 400 l 1
 444 240 l 1
 444 0 l 1
 379 -23 l 1
 370 0 l 1
 370 222 l 1
 123 408 l 1
 123 0 l 1
 59 -23 l 1
 50 0 l 1
 50 480 l 1
 50 640 l 1
 50 800 l 1xac
123 568 m 1
 123 498 l 1
 370 313 l 1
 370 382 l 1
 123 568 l 1
EndSplineSet
Validated: 1
EndChar

StartChar: I
Encoding: 73 73 34
Width: 173
Flags: W
HStem: -23 21G<51.1739 114.652> -23 21G<51.1739 114.652> 803 20G<58.7391 122.217> 803 20G<58.7391 122.217>
VStem: 50 73<0 800>
AnchorPoint: "Anchora 1" 90 918 basechar 0
LayerCount: 2
Back
SplineSet
129.139648438 800.391601562 m 5
 129.139648438 0 l 1029
EndSplineSet
Fore
SplineSet
50 800 m 1xa8
 117 823 l 1
 123 800 l 1
 123 0 l 1
 59 -23 l 1
 50 0 l 1
 50 800 l 1xa8
EndSplineSet
Validated: 1
EndChar

StartChar: J
Encoding: 74 74 35
Width: 413
Flags: W
HStem: -23 21G<287 355.522> -23 21G<287 355.522> 803 20G<298.739 363.087> 803 20G<298.739 363.087>
VStem: 290 74<133 800>
AnchorPoint: "Anchora 1" 199 918 basechar 0
LayerCount: 2
Back
SplineSet
344.083984375 800.391601562 m 5
 344.083984375 0 l 5
 103.966796875 400.196289062 l 1029
EndSplineSet
Fore
SplineSet
290 133 m 1xa8
 290 800 l 1
 357 823 l 1
 364 800 l 1
 364 0 l 1
 299 -23 l 1
 59 377 l 1
 50 400 l 1
 117 423 l 1
 290 133 l 1xa8
EndSplineSet
Validated: 1
EndChar

StartChar: K
Encoding: 75 75 36
Width: 413
Flags: W
HStem: -23 21G<51.1739 114.652> -23 21G<51.1739 114.652> 803 20G<58.7391 122.217 298.739 363.087>
VStem: 50 73<0 311 473 800>
AnchorPoint: "Anchora 1" 199 918 basechar 0
LayerCount: 2
Back
SplineSet
348.592773438 160.079101562 m 5
 108.475585938 400.196289062 l 5
 348.592773438 640.3125 l 1029
108.475585938 0 m 5
 108.475585938 800.391601562 l 1029
EndSplineSet
Fore
SplineSet
123 0 m 1xb0
 59 -23 l 1
 50 0 l 1
 50 400 l 1
 50 800 l 1
 117 823 l 1
 123 800 l 1
 123 473 l 1
 290 640 l 1
 357 663 l 1
 364 640 l 1
 131 408 l 1
 357 183 l 1
 364 160 l 1
 299 137 l 1
 123 311 l 1
 123 0 l 1xb0
EndSplineSet
Validated: 1
EndChar

StartChar: L
Encoding: 76 76 37
Width: 413
Flags: W
HStem: -23 21G<51.1739 114.652> -23 21G<51.1739 114.652> 803 20G<58.7391 122.217> 803 20G<58.7391 122.217>
VStem: 50 73<123 800>
AnchorPoint: "Anchora 1" 199 918 basechar 0
LayerCount: 2
Back
SplineSet
124.420898438 800.391601562 m 5
 124.420898438 0 l 5
 364.53515625 400.196289062 l 1029
EndSplineSet
Fore
SplineSet
50 0 m 1xa8
 50 800 l 1
 117 823 l 1
 123 800 l 1
 123 123 l 1
 290 400 l 1
 357 423 l 1
 364 400 l 1
 123 0 l 1
 59 -23 l 1
 50 0 l 1xa8
EndSplineSet
Validated: 1
EndChar

StartChar: M
Encoding: 77 77 38
Width: 653
Flags: W
HStem: -23 21G<51.1739 114.652 531.174 595.522> -23 21G<51.1739 114.652 531.174 595.522> 803 20G<58.7391 146.867 538.739 603.087> 803 20G<58.7391 146.867 538.739 603.087>
VStem: 50 73<0 480 530 732> 530 74<0 462 548 751>
AnchorPoint: "Anchora 1" 323 918 basechar 0
LayerCount: 2
Back
SplineSet
588.083984375 0 m 5
 588.083984375 800.391601562 l 5
 107.849609375 480.233398438 l 1029
107.849609375 0 m 5
 107.849609375 800.391601562 l 5
 588.083984375 480.233398438 l 1029
EndSplineSet
Fore
SplineSet
530 548 m 1x0c
 530 751 l 1
 378 650 l 1
 530 548 l 1x0c
530 462 m 1
 313 607 l 1
 123 480 l 1
 123 0 l 1
 59 -23 l 1
 50 0 l 1
 50 480 l 1
 50 800 l 1
 117 823 l 1
 341 673 l 1
 530 800 l 1
 597 823 l 1
 604 800 l 1
 604 480 l 1
 604 0 l 1
 539 -23 l 1xac
 530 0 l 1
 530 462 l 1
123 530 m 1
 277 631 l 1
 123 732 l 1
 123 530 l 1
EndSplineSet
Validated: 1
EndChar

StartChar: N
Encoding: 78 78 39
Width: 493
Flags: W
HStem: -23 21G<51.1739 114.652 371.174 435.522> -23 21G<51.1739 114.652 371.174 435.522> 803 20G<58.7391 137 378.739 443.087> 803 20G<58.7391 137 378.739 443.087>
VStem: 50 73<0 711> 370 74<0 464 570 800>
AnchorPoint: "Anchora 1" 249 918 basechar 0
LayerCount: 2
Back
SplineSet
408.517578125 800.391601562 m 1
 408.517578125 0 l 1025
88.359375 0 m 1
 88.359375 800.391601562 l 1
 408.517578125 480.233398438 l 1025
EndSplineSet
Fore
SplineSet
123 711 m 1xac
 123 0 l 1
 59 -23 l 1
 50 0 l 1
 50 800 l 1
 117 823 l 1
 370 570 l 1
 370 800 l 1
 437 823 l 1
 444 800 l 1
 444 480 l 1
 444 0 l 1
 379 -23 l 1
 370 0 l 1
 370 464 l 1
 123 711 l 1xac
EndSplineSet
Validated: 1
EndChar

StartChar: O
Encoding: 79 79 40
Width: 493
Flags: W
HStem: 643 20G<218.739 290.333>
AnchorPoint: "Anchora 1" 249 918 basechar 0
LayerCount: 2
Back
SplineSet
106.65234375 400.196289062 m 5
 266.734375 640.3125 l 5
 426.813476562 400.196289062 l 5
 266.734375 160.079101562 l 5
 106.65234375 400.196289062 l 5
EndSplineSet
Fore
SplineSet
243 579 m 1
 128 407 l 1
 251 221 l 1
 367 396 l 1
 243 579 l 1
50 400 m 1
 210 640 l 1
 277 663 l 1
 437 423 l 1
 444 400 l 1
 284 160 l 1
 219 137 l 1
 59 377 l 1
 50 400 l 1
EndSplineSet
Validated: 1
EndChar

StartChar: P
Encoding: 80 80 41
Width: 413
Flags: W
HStem: -23 21G<51.1739 114.652> -23 21G<51.1739 114.652> 803 20G<58.7391 137> 803 20G<58.7391 137>
VStem: 50 73<0 320 393 711>
AnchorPoint: "Anchora 1" 199 918 basechar 0
LayerCount: 2
Back
SplineSet
114.755859375 0 m 1
 114.755859375 800.391601562 l 1
 354.873046875 560.275390625 l 1
 114.755859375 320.158203125 l 1025
EndSplineSet
Fore
SplineSet
50 0 m 1xa8
 50 800 l 1
 117 823 l 1
 357 583 l 1
 364 560 l 1
 123 320 l 1
 123 0 l 1
 59 -23 l 1
 50 0 l 1xa8
282 552 m 1
 123 711 l 1
 123 393 l 1
 282 552 l 1
EndSplineSet
Validated: 1
EndChar

StartChar: Q
Encoding: 81 81 42
Width: 653
Flags: W
HStem: -23 21G<287 355.522> -23 21G<287 355.522> 803 20G<298.739 369> 803 20G<298.739 369>
VStem: 290 74<133 400>
AnchorPoint: "Anchora 1" 331 918 basechar 0
LayerCount: 2
Back
SplineSet
337.264648438 400.196289062 m 5
 337.264648438 0 l 5
 97.1484375 400.196289062 l 5
 337.264648438 800.391601562 l 5
 577.381835938 400.196289062 l 5
 337.264648438 0 l 5
 337.264648438 400.196289062 l 5
EndSplineSet
Fore
SplineSet
299 -23 m 1xa8
 59 377 l 1
 50 400 l 1
 290 800 l 1
 357 823 l 1
 597 423 l 1
 604 400 l 1
 364 0 l 1
 299 -23 l 1xa8
128 404 m 1
 290 133 l 1
 290 400 l 1
 357 423 l 1
 364 400 l 1
 364 123 l 1
 528 396 l 1
 323 733 l 1
 128 404 l 1
EndSplineSet
Validated: 1
EndChar

StartChar: R
Encoding: 82 82 43
Width: 413
Flags: W
HStem: -23 21G<51.1739 114.652 286.862 355.522> -23 21G<51.1739 114.652 286.862 355.522> 803 20G<58.7391 141> 803 20G<58.7391 141>
VStem: 50 73<0 267 462 721>
AnchorPoint: "Anchora 1" 199 918 basechar 0
LayerCount: 2
Back
SplineSet
87.6943359375 0 m 5
 87.6943359375 800.391601562 l 5
 327.8125 600.293945312 l 5
 87.6943359375 400.196289062 l 5
 327.8125 0 l 1029
EndSplineSet
Fore
SplineSet
50 800 m 1xa8
 117 823 l 1
 357 623 l 1
 364 600 l 1
 128 403 l 1
 357 23 l 1
 364 0 l 1
 299 -23 l 1
 123 267 l 1
 123 0 l 1
 59 -23 l 1
 50 0 l 1
 50 800 l 1xa8
280 592 m 1
 123 721 l 1
 123 462 l 1
 280 592 l 1
EndSplineSet
Validated: 1
EndChar

StartChar: S
Encoding: 83 83 44
Width: 413
Flags: W
HStem: -23 21G<51.1739 114.652> -23 21G<51.1739 114.652> 803 20G<298.739 363.087> 803 20G<298.739 363.087>
VStem: 50 314
AnchorPoint: "Anchora 1" 199 918 basechar 0
LayerCount: 2
Back
SplineSet
349.247070312 800.391601562 m 5
 109.129882812 560.275390625 l 5
 349.247070312 240.1171875 l 5
 109.129882812 0 l 1029
EndSplineSet
Fore
SplineSet
290 800 m 1xa8
 357 823 l 1
 364 800 l 1
 130 567 l 1
 357 263 l 1
 364 240 l 1
 123 0 l 1
 59 -23 l 1
 50 0 l 1
 284 236 l 1
 59 537 l 1
 50 560 l 1
 290 800 l 1xa8
EndSplineSet
Validated: 1
EndChar

StartChar: glyph48
Encoding: 279 425 45
Width: 414
Flags: W
HStem: -23 46<133 299> 777 46<136 299>
VStem: 50 314
AnchorPoint: "Anchora 1" 199 918 basechar 0
LayerCount: 2
Back
SplineSet
0.5966796875 640.3125 m 5
 -159.479492188 800.391601562 l 5
 -159.479492188 0 l 5
 -319.55859375 160.079101562 l 1029
320.75390625 800.391601562 m 5
 80.6376953125 800.391601562 l 5
 240.71875 400.196289062 l 5
 80.6376953125 0 l 5
 320.75390625 0 l 1029
640.916015625 800.391601562 m 5
 400.79296875 560.275390625 l 5
 560.87109375 400.196289062 l 5
 400.79296875 240.1171875 l 5
 640.916015625 0 l 1029
EndSplineSet
Fore
SplineSet
136 777 m 1
 277 423 l 1
 284 400 l 1
 133 23 l 1
 357 23 l 1
 364 0 l 1
 299 -23 l 1
 59 -23 l 1
 50 0 l 1
 210 399 l 1
 59 777 l 1
 50 800 l 1
 117 823 l 1
 357 823 l 1
 364 800 l 1
 299 777 l 1
 136 777 l 1
EndSplineSet
Validated: 1
EndChar

StartChar: T
Encoding: 84 84 46
Width: 493
Flags: W
HStem: -23 21G<211.174 275.522> -23 21G<211.174 275.522> 803 20G<218.739 297> 803 20G<218.739 297>
VStem: 210 74<0 711>
AnchorPoint: "Anchora 1" 248 918 basechar 0
LayerCount: 2
Back
SplineSet
110.069335938 640.3125 m 1
 270.1484375 800.391601562 l 1
 270.1484375 0 l 1
 270.1484375 800.391601562 l 1
 430.227539062 640.3125 l 1025
EndSplineSet
Fore
SplineSet
277 823 m 1xa8
 437 663 l 1
 444 640 l 1
 379 617 l 1
 284 711 l 1
 284 0 l 1
 219 -23 l 1
 210 0 l 1
 210 727 l 1
 123 640 l 1
 59 617 l 1
 50 640 l 1
 210 800 l 1
 277 823 l 1xa8
EndSplineSet
Validated: 1
EndChar

StartChar: glyph50
Encoding: 280 1063 47
Width: 414
Flags: W
HStem: -23 21G<291.174 355.522> -23 21G<291.174 355.522> 643 20G<58.7391 122.217 298.739 363.087> 803 20G<298.739 363.087>
VStem: 50 73<313 640> 290 74<0 407 480 800>
AnchorPoint: "Anchora 1" 199 918 basechar 0
LayerCount: 2
Back
SplineSet
82.541015625 640.3125 m 5
 82.541015625 240.1171875 l 5
 322.657226562 480.233398438 l 5
 322.657226562 800.391601562 l 5
 322.657226562 0 l 1029
EndSplineSet
Fore
SplineSet
364 800 m 1xbc
 364 0 l 1
 299 -23 l 1
 290 0 l 1
 290 407 l 1
 123 240 l 1
 59 217 l 1
 50 240 l 1
 50 640 l 1
 117 663 l 1
 123 640 l 1
 123 313 l 1
 290 480 l 1
 290 800 l 1
 357 823 l 1
 364 800 l 1xbc
EndSplineSet
Validated: 1
EndChar

StartChar: U
Encoding: 85 85 48
Width: 413
Flags: W
HStem: -23 21G<51.1739 114.652 291.174 355.522> -23 21G<51.1739 114.652 291.174 355.522> 803 20G<58.7391 122.217 298.739 363.087> 803 20G<58.7391 122.217 298.739 363.087>
VStem: 50 73<49 800> 290 74<0 111 160 800>
AnchorPoint: "Anchora 1" 199 918 basechar 0
LayerCount: 2
Back
SplineSet
113.010742188 800.391601562 m 5
 113.010742188 0 l 5
 353.12890625 160.079101562 l 5
 353.12890625 0 l 5
 353.12890625 800.391601562 l 1029
EndSplineSet
Fore
SplineSet
364 0 m 1xac
 299 -23 l 1
 290 0 l 1
 290 111 l 1
 123 0 l 1
 59 -23 l 1
 50 0 l 1
 50 800 l 1
 117 823 l 1
 123 800 l 1
 123 49 l 1
 290 160 l 1
 290 800 l 1
 357 823 l 1
 364 800 l 1
 364 0 l 1xac
EndSplineSet
Validated: 1
EndChar

StartChar: V
Encoding: 86 86 49
Width: 493
Flags: W
HStem: -23 21G<371 435.522> -23 21G<371 435.522> 803 20G<58.7391 124.981 378.739 443.087> 803 20G<58.7391 124.981 378.739 443.087>
VStem: 370 74<189 800>
AnchorPoint: "Anchora 1" 249 918 basechar 0
LayerCount: 2
Back
SplineSet
107.03125 800.391601562 m 1
 427.189453125 0 l 1
 427.189453125 800.391601562 l 1025
EndSplineSet
Fore
SplineSet
59 777 m 1xa8
 50 800 l 1
 117 823 l 1
 370 189 l 1
 370 800 l 1
 437 823 l 1
 444 800 l 1
 444 0 l 1
 379 -23 l 1
 59 777 l 1xa8
EndSplineSet
Validated: 1
EndChar

StartChar: W
Encoding: 87 87 50
Width: 653
Flags: W
HStem: -23 21G<51.1739 114.652 508.867 595.522> -23 21G<51.1739 114.652 508.867 595.522> 803 20G<58.7391 137 538.739 603.087> 803 20G<58.7391 137 538.739 603.087>
VStem: 50 73<49 480 553 711> 530 74<68 800>
AnchorPoint: "Anchora 1" 331 918 basechar 0
LayerCount: 2
Back
SplineSet
583.62109375 800.391601562 m 1
 583.62109375 0 l 1
 343.50390625 160.079101562 l 1
 103.38671875 0 l 1
 103.38671875 800.391601562 l 1
 263.466796875 640.3125 l 1
 103.38671875 480.233398438 l 1025
EndSplineSet
Fore
SplineSet
50 0 m 1xac
 50 800 l 1
 117 823 l 1
 277 663 l 1
 284 640 l 1
 123 480 l 1
 123 49 l 1
 290 160 l 1
 357 183 l 1
 530 68 l 1
 530 800 l 1
 597 823 l 1
 604 800 l 1
 604 0 l 1
 539 -23 l 1
 313 127 l 1
 123 0 l 1
 59 -23 l 1
 50 0 l 1xac
202 632 m 1
 123 711 l 1
 123 553 l 1
 202 632 l 1
EndSplineSet
Validated: 1
EndChar

StartChar: X
Encoding: 88 88 51
Width: 493
Flags: W
HStem: -23 21G<51.1739 114.652 371 435.522> -23 21G<51.1739 114.652 371 435.522> 803 20G<58.7391 124.939 378.739 443.087> 803 20G<58.7391 124.939 378.739 443.087>
AnchorPoint: "Anchora 1" 249 918 basechar 0
LayerCount: 2
Back
SplineSet
418.522460938 800.391601562 m 5
 98.3671875 0 l 1029
98.3671875 800.391601562 m 5
 418.522460938 0 l 1029
EndSplineSet
Fore
SplineSet
59 777 m 1xa0
 50 800 l 1
 117 823 l 1
 248 493 l 1
 370 800 l 1
 437 823 l 1
 444 800 l 1
 284 401 l 1
 437 23 l 1
 444 0 l 1
 379 -23 l 1
 247 307 l 1
 123 0 l 1
 59 -23 l 1
 50 0 l 1
 210 399 l 1
 59 777 l 1xa0
EndSplineSet
Validated: 1
EndChar

StartChar: Y
Encoding: 89 89 52
Width: 493
Flags: W
HStem: -23 21G<211.174 275.522> -23 21G<211.174 275.522> 803 20G<58.7391 130.267 378.739 443.087> 803 20G<58.7391 130.267 378.739 443.087>
VStem: 210 74<0 550>
AnchorPoint: "Anchora 1" 249 918 basechar 0
LayerCount: 2
Back
SplineSet
-303.069335938 800.391601562 m 5
 -142.99609375 640.3125 l 5
 17.0830078125 800.391601562 l 5
 -142.99609375 640.3125 l 5
 -142.99609375 0 l 1029
97.126953125 800.391601562 m 5
 257.200195312 560.275390625 l 5
 417.28125 800.391601562 l 5
 257.200195312 560.275390625 l 5
 257.200195312 0 l 1029
497.322265625 800.391601562 m 5
 657.3984375 320.158203125 l 5
 657.3984375 0 l 5
 657.3984375 320.158203125 l 5
 817.477539062 800.391601562 l 1029
EndSplineSet
Fore
SplineSet
251 621 m 1xa8
 370 800 l 1
 437 823 l 1
 444 800 l 1
 284 560 l 1
 284 0 l 1
 219 -23 l 1
 210 0 l 1
 210 550 l 1
 59 777 l 1
 50 800 l 1
 117 823 l 1
 251 621 l 1xa8
EndSplineSet
Validated: 1
EndChar

StartChar: Z
Encoding: 90 90 53
Width: 493
Flags: W
HStem: -23 21G<211.174 275.522> -23 21G<211.174 275.522> 803 20G<218.739 283.087> 803 20G<218.739 283.087>
VStem: 210 74<73 727>
AnchorPoint: "Anchora 1" 249 918 basechar 0
LayerCount: 2
Back
SplineSet
96.0703125 640.3125 m 1
 256.149414062 800.391601562 l 1
 256.149414062 0 l 1
 416.229492188 160.079101562 l 1025
505.895507812 640.3125 m 1
 746.017578125 800.391601562 l 1
 585.938476562 0 l 1
 826.0546875 160.079101562 l 1025
EndSplineSet
Fore
SplineSet
549 -23 m 1025x48
210 0 m 1
 210 727 l 1
 123 640 l 1
 59 617 l 1
 50 640 l 1
 210 800 l 1
 277 823 l 1
 284 800 l 1
 284 73 l 1
 370 160 l 1
 437 183 l 1
 444 160 l 1
 284 0 l 1
 219 -23 l 1xa8
 210 0 l 1
EndSplineSet
Validated: 1
EndChar

StartChar: uni0232
Encoding: 281 562 54
Width: 494
Flags: W
HStem: -23 21G<211.174 275.522> -23 21G<211.174 275.522> 643 20G<58.7391 137 378.739 443.087> 777 46<117 379>
VStem: 210 74<0 464>
AnchorPoint: "Anchora 1" 249 918 basechar 0
LayerCount: 2
Back
SplineSet
77.306640625 800.391601562 m 5
 397.46484375 800.391601562 l 1029
77.306640625 640.3125 m 5
 237.384765625 480.233398438 l 5
 397.46484375 640.3125 l 5
 237.384765625 480.233398438 l 5
 237.384765625 0 l 1029
EndSplineSet
Fore
SplineSet
256 524 m 1xb8
 370 640 l 1
 437 663 l 1
 444 640 l 1
 284 480 l 1
 284 0 l 1
 219 -23 l 1
 210 0 l 1
 210 464 l 1
 59 617 l 1
 50 640 l 1
 117 663 l 1
 256 524 l 1xb8
59 777 m 1
 50 800 l 1
 117 823 l 1
 437 823 l 1
 444 800 l 1
 379 777 l 1
 59 777 l 1
EndSplineSet
Validated: 1
EndChar

StartChar: Wmacron
Encoding: 283 -1 84
Width: 654
Flags: W
HStem: -23 21G<51.1739 114.652 508.867 595.522> -23 21G<51.1739 114.652 508.867 595.522> 643 20G<58.7391 137 538.739 603.087> 777 46<197 459>
VStem: 50 73<49 320 393 551> 530 74<68 640>
AnchorPoint: "Anchora 1" 328 924 basechar 0
LayerCount: 2
Back
SplineSet
487.053710938 800.391601562 m 1
 166.895507812 800.391601562 l 1025
567.091796875 640.3125 m 1
 567.091796875 0 l 1
 326.974609375 160.079101562 l 1
 86.857421875 0 l 1
 86.857421875 640.3125 l 1
 246.93359375 480.233398438 l 1
 86.857421875 320.158203125 l 1025
EndSplineSet
Fore
SplineSet
50 0 m 1xbc
 50 640 l 1
 117 663 l 1
 277 503 l 1
 284 480 l 1
 123 320 l 1
 123 49 l 1
 290 160 l 1
 357 183 l 1
 530 68 l 1
 530 640 l 1
 597 663 l 1
 604 640 l 1
 604 0 l 1
 539 -23 l 1
 313 127 l 1
 123 0 l 1
 59 -23 l 1
 50 0 l 1xbc
202 472 m 1
 123 551 l 1
 123 393 l 1
 202 472 l 1
517 823 m 1
 524 800 l 1
 459 777 l 1
 139 777 l 1
 130 800 l 1
 197 823 l 1
 517 823 l 1
EndSplineSet
Validated: 1
LCarets2: 1 0
Ligature2: "'liga' Standard Ligatures lookup 0-1" W uni0304
EndChar

StartChar: uni0304
Encoding: 285 772 86
Width: 0
GlyphClass: 4
Flags: W
HStem: 882 48<-341 -79>
AnchorPoint: "Anchora 1" -212 918 mark 0
LayerCount: 2
Fore
SplineSet
-21 930 m 5
 -12 907 l 5
 -79 882 l 5
 -399 882 l 5
 -408 907 l 5
 -341 930 l 5
 -21 930 l 5
EndSplineSet
Validated: 1
EndChar

StartChar: uni007F
Encoding: 127 127 90
Width: 1000
LayerCount: 2
Back
SplineSet
-98.0419921875 80.037109375 m 5
 142.07421875 720.354492188 l 5
 382.197265625 80.037109375 l 1029
1262.62597656 720.354492188 m 5
 942.467773438 720.354492188 l 1029
862.430664062 80.037109375 m 5
 1102.546875 560.275390625 l 5
 1342.6640625 80.037109375 l 1029
1982.98144531 480.233398438 m 1
 2223.09765625 240.1171875 l 1
 1982.98144531 0 l 1
 1982.98144531 800.391601562 l 1
 2223.09765625 560.275390625 l 1
 2143.05566406 480.233398438 l 1025
3103.52832031 800.391601562 m 1
 2863.41210938 400.196289062 l 1
 3103.52832031 0 l 1025
3903.92089844 266.80078125 m 1
 3823.8828125 133.395507812 l 1
 3884.70898438 32.0185546875 l 1025
4064 800.391601562 m 1
 3823.8828125 400.196289062 l 1
 4064 0 l 1025
4876.30273438 800.391601562 m 1
 5116.41992188 400.196289062 l 1
 4876.30273438 0 l 1
 4876.30273438 400.196289062 l 1025
5904.90234375 400.196289062 m 1
 5744.82324219 400.196289062 l 1025
5824.86523438 800.391601562 m 1
 6064.98144531 400.196289062 l 1
 5824.86523438 0 l 1
 5824.86523438 400.196289062 l 1025
6945.41113281 800.391601562 m 1
 6705.29394531 400.196289062 l 1
 6945.41113281 400.196289062 l 1
 6705.29394531 400.196289062 l 1
 6945.41113281 0 l 1025
7665.765625 768.375 m 1
 7985.92578125 768.375 l 1025
7905.88183594 640.3125 m 1
 7665.765625 320.158203125 l 1
 7905.88183594 320.158203125 l 1
 7665.765625 320.158203125 l 1
 7905.88183594 0 l 1025
8626.23828125 560.275390625 m 1
 8866.35546875 800.391601562 l 1025
8626.23828125 320.158203125 m 1
 8866.35546875 560.275390625 l 1025
8626.23828125 800.391601562 m 1
 8626.23828125 0 l 1025
9746.78417969 640.3125 m 1
 9986.90527344 400.196289062 l 1
 9746.78417969 160.079101562 l 1
 9506.66796875 400.196289062 l 1
 9746.78417969 640.3125 l 1
9746.78417969 800.391601562 m 1
 9746.78417969 0 l 1025
10627.2197266 640.3125 m 1
 10867.3369141 400.196289062 l 1
 10627.2197266 160.079101562 l 1
 10627.2197266 640.3125 l 1
10627.2197266 800.391601562 m 1
 10627.2197266 0 l 1025
11667.7285156 800.391601562 m 1
 11427.6123047 400.196289062 l 1
 11667.7285156 0 l 1
 11907.8457031 400.196289062 l 1
 11667.7285156 400.196289062 l 1025
12147.9619141 800.391601562 m 1
 12468.1210938 800.391601562 l 1
 12198.2871094 530.557617188 l 1
 12438.4033203 290.44140625 l 1
 12147.9619141 0 l 1025
12548.1582031 800.391601562 m 1
 12788.2802734 800.391601562 l 1
 12548.1582031 400.196289062 l 1
 12788.2802734 400.196289062 l 1
 12548.1582031 0 l 1025
12868.3183594 800.391601562 m 1
 13108.4345703 800.391601562 l 1
 12868.3183594 480.233398438 l 1
 13108.4345703 240.1171875 l 1
 12868.3183594 0 l 1025
13748.7480469 800.391601562 m 1
 13748.7480469 0 l 1025
13428.59375 480.233398438 m 1
 13748.7480469 240.1171875 l 1025
13428.59375 640.3125 m 1
 13748.7480469 400.196289062 l 1025
13428.59375 800.391601562 m 1
 13428.59375 0 l 1025
14549.1396484 800.391601562 m 1
 14549.1396484 0 l 1025
15509.6123047 640.3125 m 1
 15509.6123047 0 l 1025
15349.53125 800.391601562 m 1
 15669.6914062 800.391601562 l 1025
16470.0839844 800.391601562 m 1
 16470.0839844 0 l 1
 16229.9667969 400.196289062 l 1025
17510.5927734 160.079101562 m 1
 17270.4755859 400.196289062 l 1
 17510.5927734 640.3125 l 1025
17270.4755859 0 m 1
 17270.4755859 800.391601562 l 1025
18230.9482422 640.3125 m 1
 18471.0654297 400.196289062 l 1
 18230.9482422 160.079101562 l 1025
18471.0654297 800.391601562 m 1
 18471.0654297 0 l 1025
19191.4199219 800.391601562 m 1
 19191.4199219 0 l 1
 19431.5361328 400.196289062 l 1025
20552.0830078 0 m 1
 20552.0830078 800.391601562 l 1
 20071.8496094 480.233398438 l 1025
20071.8496094 0 m 1
 20071.8496094 800.391601562 l 1
 20552.0830078 480.233398438 l 1025
21432.5175781 800.391601562 m 1
 21432.5175781 0 l 1025
21112.359375 0 m 1
 21112.359375 800.391601562 l 1
 21432.5175781 480.233398438 l 1025
22072.8310547 800.391601562 m 1
 22072.8310547 0 l 1025
22072.8310547 480.233398438 m 1
 22392.9892578 800.391601562 l 1
 22392.9892578 0 l 1
 22152.8681641 240.1171875 l 1
 22392.9892578 480.233398438 l 1025
22793.1865234 0 m 1
 22793.1865234 800.391601562 l 1
 23113.3408203 480.233398438 l 1025
23113.3408203 800.391601562 m 1
 23113.3408203 0 l 1
 22793.1865234 320.158203125 l 1025
23593.5791016 800.391601562 m 1
 23273.4199219 400.196289062 l 1
 23593.5791016 0 l 1025
23273.4199219 800.391601562 m 1
 23593.5791016 400.196289062 l 1
 23273.4199219 0 l 1025
23753.6533203 400.196289062 m 1
 23913.7333984 640.3125 l 1
 24073.8125 400.196289062 l 1
 23913.7333984 160.079101562 l 1
 23753.6533203 400.196289062 l 1
24233.8916016 400.196289062 m 1
 24393.9707031 800.391601562 l 1
 24554.0458984 400.196289062 l 1
 24393.9707031 0 l 1
 24233.8916016 400.196289062 l 1
24073.8125 -960.471679688 m 1
 23753.6533203 -400.196289062 l 1
 23913.7333984 -160.079101562 l 1
 24073.8125 -400.196289062 l 1
 23753.6533203 -960.471679688 l 1025
24474.0078125 -160.079101562 m 1
 24153.8496094 -720.354492188 l 1
 24313.9287109 -960.471679688 l 1
 24474.0078125 -720.354492188 l 1
 24153.8496094 -160.079101562 l 1025
24794.1669922 720.354492188 m 1
 24954.2421875 720.354492188 l 1025
24714.125 320.158203125 m 1
 24874.2041016 560.275390625 l 1
 25034.2832031 320.158203125 l 1
 24874.2041016 80.037109375 l 1
 24714.125 320.158203125 l 1
25194.3642578 800.391601562 m 1
 25514.5185547 800.391601562 l 1025
25194.3642578 320.158203125 m 1
 25354.4375 640.3125 l 1
 25514.5185547 320.158203125 l 1
 25354.4375 0 l 1
 25194.3642578 320.158203125 l 1
25994.7558594 0 m 1
 25994.7558594 800.391601562 l 1
 26234.8730469 560.275390625 l 1
 25994.7558594 320.158203125 l 1025
27035.2646484 400.196289062 m 1
 27035.2646484 0 l 1
 26795.1484375 400.196289062 l 1
 27035.2646484 800.391601562 l 1
 27275.3818359 400.196289062 l 1
 27035.2646484 0 l 1
 27035.2646484 400.196289062 l 1
27915.6943359 0 m 1
 27915.6943359 800.391601562 l 1
 28155.8125 600.293945312 l 1
 27915.6943359 400.196289062 l 1
 28155.8125 0 l 1025
29036.2470703 800.391601562 m 1
 28796.1298828 560.275390625 l 1
 29036.2470703 240.1171875 l 1
 28796.1298828 0 l 1025
29756.5966797 640.3125 m 1
 29596.5214844 800.391601562 l 1
 29596.5214844 0 l 1
 29436.4423828 160.079101562 l 1025
30076.7548828 800.391601562 m 1
 29836.6386719 800.391601562 l 1
 29996.7177734 400.196289062 l 1
 29836.6386719 0 l 1
 30076.7548828 0 l 1025
30396.9150391 800.391601562 m 1
 30156.7929688 560.275390625 l 1
 30316.8720703 400.196289062 l 1
 30156.7929688 240.1171875 l 1
 30396.9150391 0 l 1025
30717.0693359 640.3125 m 1
 30877.1484375 800.391601562 l 1
 30877.1484375 0 l 1
 30877.1484375 800.391601562 l 1
 31037.2285156 640.3125 l 1025
31677.5410156 640.3125 m 1
 31677.5410156 240.1171875 l 1
 31917.6572266 480.233398438 l 1
 31917.6572266 800.391601562 l 1
 31917.6572266 0 l 1025
32638.0117188 800.391601562 m 1
 32638.0117188 0 l 1
 32878.1298828 160.079101562 l 1
 32878.1298828 0 l 1
 32878.1298828 800.391601562 l 1025
33598.4853516 800.391601562 m 1
 33838.6015625 800.391601562 l 1025
33598.4853516 640.3125 m 1
 33598.4853516 0 l 1
 33838.6015625 160.079101562 l 1
 33838.6015625 0 l 1
 33838.6015625 640.3125 l 1025
34558.9521484 800.391601562 m 1
 34558.9521484 0 l 1
 34318.8349609 400.196289062 l 1
 34318.8349609 800.391601562 l 1025
34719.03125 800.391601562 m 1
 35039.1894531 0 l 1
 35039.1894531 800.391601562 l 1025
35919.6210938 800.391601562 m 1
 35919.6210938 0 l 1
 35679.5039062 160.079101562 l 1
 35439.3867188 0 l 1
 35439.3867188 800.391601562 l 1
 35599.4667969 640.3125 l 1
 35439.3867188 480.233398438 l 1025
36800.0546875 800.391601562 m 1
 36479.8955078 800.391601562 l 1025
36880.0917969 640.3125 m 1
 36880.0917969 0 l 1
 36639.9755859 160.079101562 l 1
 36399.8583984 0 l 1
 36399.8583984 640.3125 l 1
 36559.9335938 480.233398438 l 1
 36399.8583984 320.158203125 l 1025
37760.5214844 800.391601562 m 1
 37440.3671875 0 l 1025
37440.3671875 800.391601562 m 1
 37760.5214844 0 l 1025
38000.6435547 800.391601562 m 1
 38160.71875 640.3125 l 1
 38320.7978516 800.391601562 l 1
 38160.71875 640.3125 l 1
 38160.71875 0 l 1025
38400.8398438 800.391601562 m 1
 38560.9150391 560.275390625 l 1
 38720.9941406 800.391601562 l 1
 38560.9150391 560.275390625 l 1
 38560.9150391 0 l 1025
38801.0361328 800.391601562 m 1
 38961.1113281 320.158203125 l 1
 38961.1113281 0 l 1
 38961.1113281 320.158203125 l 1
 39121.1904297 800.391601562 l 1025
39361.3066406 800.391601562 m 1
 39681.4658203 800.391601562 l 1025
39361.3066406 640.3125 m 1
 39521.3857422 480.233398438 l 1
 39681.4658203 640.3125 l 1
 39521.3857422 480.233398438 l 1
 39521.3857422 0 l 1025
40152.0693359 640.3125 m 1
 40312.1484375 800.391601562 l 1
 40312.1484375 0 l 1
 40472.2294922 160.079101562 l 1025
40561.8945312 640.3125 m 1
 40802.0175781 800.391601562 l 1
 40641.9384766 0 l 1
 40882.0546875 160.079101562 l 1025
-98.0419921875 -160.079101562 m 5
 -258.12109375 -560.275390625 l 5
 -98.0419921875 -560.275390625 l 1029
-418.196289062 -960.471679688 m 5
 -418.196289062 -160.079101562 l 5
 -98.0419921875 -960.471679688 l 1029
542.270507812 -560.275390625 m 5
 302.153320312 -560.275390625 l 1029
542.270507812 -160.079101562 m 5
 302.153320312 -560.275390625 l 5
 542.270507812 -960.471679688 l 1029
62.037109375 -960.471679688 m 5
 302.153320312 -160.079101562 l 5
 382.197265625 -400.196289062 l 1029
1182.58886719 -160.079101562 m 5
 942.467773438 -560.275390625 l 5
 1182.58886719 -560.275390625 l 1029
1182.58886719 -960.471679688 m 5
 942.467773438 -560.275390625 l 5
 702.3515625 -960.471679688 l 1029
EndSplineSet
Fore
Validated: 1
EndChar

StartChar: AE
Encoding: 198 198 92
Width: 654
Flags: W
HStem: -23 21G<51.1739 114.652 527 595.522> -23 21G<51.1739 114.652 527 595.522> 377 46<383 539> 803 20G<298.739 363.087 538.739 603.087> 803 20G<298.739 363.087 538.739 603.087>
AnchorPoint: "Anchora 1" 323 918 basechar 0
LayerCount: 2
Back
SplineSet
571.270507812 400.196289062 m 1
 331.153320312 400.196289062 l 1025
571.270507812 800.392578125 m 1
 331.153320312 400.196289062 l 1
 571.270507812 0 l 1025
91.037109375 0 m 1
 331.153320312 800.392578125 l 1
 411.198242188 560.275390625 l 1025
EndSplineSet
Fore
SplineSet
290 800 m 1xb0
 357 823 l 1
 364 800 l 1
 423 622 l 1
 530 800 l 1
 597 823 l 1
 604 800 l 1
 379 423 l 1
 597 423 l 1
 604 400 l 1
 539 377 l 1
 383 377 l 1
 597 23 l 1
 604 0 l 1
 539 -23 l 1
 299 377 l 1
 290 400 l 1
 377 543 l 1
 360 590 346 635 329 682 c 1
 123 0 l 1
 59 -23 l 1
 50 0 l 1
 290 800 l 1xb0
EndSplineSet
Validated: 1
EndChar

